<?xml version="1.0" encoding="utf-8"?>
<svg width="1440" height="466" viewBox="0 0 1440 466" fill="none" xmlns="http://www.w3.org/2000/svg">
  <g clip-path="url(#clip0_1515_6073)">
    <g opacity="0.8">
      <circle cx="699.371" cy="462.304" r="4" fill="#132A54"/>
      <circle cx="1333.8" cy="441.63" r="4" fill="#132A54"/>
      <circle cx="919.23" cy="260.529" r="16.6292" fill="#3F2A59"/>
      <circle cx="1083.37" cy="185.798" r="16.6292" fill="#132A54"/>
      <circle cx="1115.74" cy="392.168" r="16.6292" fill="#3F2A59"/>
      <circle cx="797.084" cy="59.7975" r="11.2131" fill="#132A54"/>
      <circle cx="702.838" cy="359.243" r="11.2131" fill="#3F2A59"/>
      <circle cx="1040.37" cy="68.3867" r="11.2131" fill="#3F2A59"/>
      <circle cx="892.372" cy="7.17353" r="7.17353" fill="#3F2A59"/>
      <circle cx="1355.42" cy="282.572" r="7.17353" fill="#3F2A59"/>
      <circle cx="1304.42" cy="36.572" r="7.17353" fill="#3F2A59"/>
      <circle cx="682.198" cy="105" r="4" fill="#3F2A59"/>
      <circle cx="954.94" cy="413.72" r="11.2131" fill="#132A54"/>
      <circle cx="557.126" cy="429.682" r="11.2131" fill="#132A54"/>
      <circle cx="556.213" cy="86.7733" r="11.2131" fill="#132A54"/>
      <circle cx="702.47" cy="253.838" r="11.2131" fill="#132A54"/>
      <circle cx="1230.92" cy="255.113" r="11.2131" fill="#132A54"/>
      <circle cx="1398.58" cy="117.533" r="11.2131" fill="#132A54"/>
      <circle cx="1181.15" cy="75.5602" r="11.2131" fill="#132A54"/>
      <g>
        <path d="M 859.29 447.352 C 884.281 438.245 897.147 410.611 888.026 385.631 C 878.906 360.65 851.253 347.782 826.262 356.889 C 801.27 365.996 788.405 393.63 797.526 418.611 C 806.646 443.592 834.299 456.46 859.29 447.352 Z" fill="#132A54" opacity="0.6"/>
        <path d="M 875.378 423.106 C 865.063 439.161 844.212 445.524 826.42 437.251 C 808.612 428.963 800.055 408.882 805.737 390.64" stroke="#2D96FF" stroke-width="2" stroke-linecap="round" stroke-linejoin="round" opacity="0.6"/>
        <path d="M 810.147 381.177 C 820.451 365.094 841.323 358.702 859.132 366.99 C 876.94 375.279 885.483 395.322 879.829 413.554" stroke="#2D96FF" stroke-width="2" stroke-linecap="round" stroke-linejoin="round" opacity="0.6"/>
        <path d="M 842.927 368.734 C 825.724 368.734 811.706 382.111 811.706 398.528 C 811.706 404.128 813.06 409.399 816.18 414.144 C 816.438 414.539 816.892 414.779 817.379 414.78 C 817.868 414.781 818.322 414.543 818.583 414.15 L 831.502 394.655 L 831.518 394.682 L 833.154 397.033 L 837.988 403.985 L 835.518 397.039 L 835.515 397.036 C 835.528 397.018 835.542 396.999 835.554 396.98 L 842.927 385.242 L 849.413 396.065 L 852.819 401.752 L 851.641 396.414 L 851.616 396.377 C 851.699 396.303 851.773 396.22 851.835 396.129 L 852.819 394.682 L 866.215 415.456 C 866.466 415.845 866.905 416.087 867.383 416.099 C 867.861 416.112 868.314 415.894 868.588 415.52 C 872.229 410.543 874.148 404.693 874.148 398.528 C 874.148 382.111 860.13 368.734 842.927 368.734 Z M 842.927 371.442 C 858.591 371.442 871.309 383.58 871.309 398.528 C 871.309 403.385 869.775 407.884 867.293 411.962 L 854.058 391.436 C 853.803 391.04 853.353 390.797 852.866 390.792 C 852.378 390.786 851.923 391.02 851.658 391.41 L 850.721 392.791 L 844.188 381.888 C 843.937 381.471 843.475 381.212 842.971 381.207 C 842.468 381.202 842 381.452 841.741 381.864 L 834.276 393.748 L 832.655 391.415 C 832.389 391.032 831.937 390.804 831.455 390.809 C 830.974 390.815 830.528 391.053 830.271 391.442 L 817.604 410.555 C 815.655 406.839 814.544 402.889 814.544 398.528 C 814.544 383.58 827.263 371.442 842.927 371.442 Z" fill="#2d96ff" fill-rule="nonzero" stroke="none" stroke-width="1" stroke-linecap="butt" stroke-linejoin="miter" stroke-miterlimit="10" stroke-dasharray="" stroke-dashoffset="0" font-family="none" font-weight="none" font-size="none" text-anchor="none" style="mix-blend-mode: normal;" opacity="0.6"/>
        <text style="fill: rgb(109, 164, 222); font-family: Arial, sans-serif; font-size: 22.4px; white-space: pre; opacity: 0.6;" x="820.577" y="429.534">VPN</text>
      </g>
      <g>
        <g opacity="0.6" style="">
          <path d="M938.088 149.181C963.827 155.896 990.145 140.484 996.872 114.756C1003.6 89.0291 988.186 62.7291 962.447 56.0138C936.708 49.2984 910.39 64.7106 903.663 90.4379C896.937 116.165 912.349 142.465 938.088 149.181Z" fill="#132A54"/>
          <path d="M965.127 138.382C947.5 145.724 926.729 139.106 916.81 122.191C906.886 105.254 911.287 83.8768 926.35 72.1037" fill="#132A54"/>
          <path d="M965.127 138.382C947.5 145.724 926.729 139.106 916.81 122.191C906.886 105.254 911.287 83.8768 926.35 72.1037" stroke="#2D96FF" stroke-width="2" stroke-linecap="round" stroke-linejoin="round"/>
          <path d="M935.362 66.831C952.997 59.4605 973.802 66.0661 983.726 83.0032C993.642 99.928 989.258 121.279 974.224 133.059" fill="#132A54"/>
          <path d="M935.362 66.831C952.997 59.4605 973.802 66.0661 983.726 83.0032C993.642 99.928 989.258 121.279 974.224 133.059" stroke="#2D96FF" stroke-width="2" stroke-linecap="round" stroke-linejoin="round"/>
          <path d="M 953.181 69.141 C 962.154 73.784 977.206 84.671 977.206 105.426 C 977.206 121.114 964.857 133.402 949.091 133.402 C 932.536 133.402 920.975 121.829 920.975 105.261 C 920.975 96.488 926.351 87.156 934.046 82.564 C 935.721 81.568 937.792 81.545 939.454 82.498 C 941.129 83.455 942.182 85.271 942.203 87.237 C 942.208 87.672 942.268 88.173 942.361 88.691 C 945.536 85.907 946.638 81.244 945.638 74.767 C 945.334 72.748 946.164 70.703 947.754 69.54 C 949.34 68.38 951.418 68.228 953.181 69.141 Z M 949.091 123.276 C 960.432 123.276 967.21 114.201 967.21 105.426 C 967.21 94.686 961.522 87.391 955.728 82.746 C 954.605 91.506 949.573 97.91 941.357 100.552 L 938.542 101.457 L 936.4 99.397 C 935.535 98.564 934.796 97.364 934.187 96.006 C 932.312 98.645 930.972 101.918 930.972 105.261 C 930.972 113.572 935.718 123.276 949.091 123.276 Z" fill="#2d96ff" fill-rule="nonzero" stroke="none" stroke-width="1" stroke-linecap="butt" stroke-linejoin="miter" stroke-miterlimit="10" stroke-dasharray="" stroke-dashoffset="0" font-family="none" font-weight="none" font-size="none" text-anchor="none" style="mix-blend-mode: normal;"/>
        </g>
      </g>
      <g opacity="0.6">
        <path d="M1297.44 420.097C1323.99 418.376 1344.11 395.472 1342.39 368.94C1340.66 342.407 1317.74 322.294 1291.2 324.015C1264.65 325.736 1244.52 348.64 1246.25 375.172C1247.97 401.704 1270.89 421.818 1297.44 420.097Z" fill="#3F2A59"/>
        <path d="M1319.71 401.348C1305.29 413.858 1283.48 414.108 1268.74 401.173C1253.98 388.219 1251.41 366.547 1262 350.638" fill="#3F2A59"/>
        <path d="M1319.71 401.348C1305.29 413.858 1283.48 414.108 1268.74 401.173C1253.98 388.219 1251.41 366.547 1262 350.638" stroke="#A862EC" stroke-width="2" stroke-linecap="round" stroke-linejoin="round"/>
        <path d="M1268.89 342.796C1283.31 330.256 1305.14 329.984 1319.9 342.938C1334.65 355.883 1337.22 377.524 1326.66 393.431" fill="#3F2A59"/>
        <path d="M1268.89 342.796C1283.31 330.256 1305.14 329.984 1319.9 342.938C1334.65 355.883 1337.22 377.524 1326.66 393.431" stroke="#A862EC" stroke-width="2" stroke-linecap="round" stroke-linejoin="round"/>
        <path d="M 1286.619 343.626 C 1285.536 343.639 1284.53 343.747 1283.616 343.917 C 1279.959 344.594 1277.654 346.246 1277.654 346.246 C 1277.41 346.423 1277.239 346.681 1277.17 346.974 L 1273.122 364.188 C 1272.91 365.098 1273.732 365.91 1274.639 365.688 C 1278.92 364.626 1285.347 364.146 1291.997 367.863 C 1292.714 368.263 1293.615 367.876 1293.819 367.081 L 1298.565 348.475 C 1298.697 347.953 1298.48 347.403 1298.025 347.113 C 1293.802 344.42 1289.866 343.589 1286.619 343.626 Z M 1286.647 346.114 C 1287.579 346.1 1288.577 346.17 1289.639 346.359 C 1291.534 346.695 1293.651 347.505 1295.899 348.816 L 1291.752 365.066 C 1285.85 362.241 1280.245 362.16 1275.989 362.921 L 1279.48 348.07 C 1279.905 347.789 1281.365 346.874 1284.07 346.373 C 1284.855 346.228 1285.717 346.129 1286.647 346.114 Z M 1301.687 350.035 C 1301.127 350.049 1300.644 350.433 1300.505 350.975 L 1295.789 369.466 C 1295.661 369.964 1295.852 370.489 1296.27 370.79 C 1304.587 376.766 1313.115 374.658 1316.662 373.304 C 1317.05 373.156 1317.339 372.826 1317.434 372.423 L 1322.102 352.576 C 1322.32 351.64 1321.442 350.818 1320.521 351.096 C 1320.389 351.136 1320.264 351.199 1320.151 351.28 C 1320.151 351.28 1318.319 352.62 1315.141 353.201 C 1311.965 353.784 1307.559 353.593 1302.4 350.238 C 1302.189 350.1 1301.94 350.029 1301.687 350.035 Z M 1302.539 353.121 C 1307.612 355.94 1312.227 356.276 1315.591 355.66 C 1317.055 355.393 1318.101 354.941 1319.077 354.525 L 1315.166 371.146 C 1311.911 372.291 1305.281 373.599 1298.455 369.125 L 1302.539 353.121 Z M 1280.532 367.443 C 1277.104 367.466 1274.259 368.295 1272.569 368.941 C 1272.181 369.089 1271.892 369.419 1271.796 369.823 L 1267.17 389.505 C 1267.147 389.599 1267.136 389.695 1267.136 389.791 L 1267.136 389.848 C 1267.136 390.81 1268.177 391.411 1269.011 390.93 C 1269.049 390.909 1269.084 390.885 1269.119 390.86 C 1269.119 390.86 1270.841 389.606 1273.852 389.005 C 1276.864 388.403 1281.049 388.474 1285.969 391.375 C 1286.687 391.8 1287.612 391.415 1287.817 390.606 L 1292.526 372.143 C 1292.661 371.62 1292.445 371.071 1291.992 370.78 C 1287.972 368.201 1283.96 367.419 1280.532 367.443 Z M 1280.486 369.933 C 1283.286 369.905 1286.546 370.626 1289.849 372.53 L 1285.766 388.529 C 1280.917 386.111 1276.542 385.919 1273.361 386.554 C 1272.024 386.821 1271.089 387.236 1270.181 387.623 L 1274.067 371.095 C 1275.587 370.56 1277.771 369.959 1280.486 369.933 Z M 1295.635 373.644 C 1295.086 373.67 1294.62 374.051 1294.485 374.584 L 1289.767 393.063 C 1289.64 393.566 1289.837 394.098 1290.264 394.395 C 1296.115 398.483 1301.489 398.935 1305.337 398.29 C 1309.185 397.644 1311.619 395.89 1311.619 395.89 C 1311.927 395.666 1312.117 395.315 1312.136 394.935 L 1312.136 394.933 L 1316.109 378.058 C 1316.322 377.148 1315.497 376.333 1314.59 376.559 C 1312.862 376.988 1310.782 377.318 1308.484 377.318 C 1304.829 377.318 1300.627 376.466 1296.35 373.829 C 1296.136 373.696 1295.886 373.631 1295.635 373.644 Z M 1296.547 376.61 C 1300.73 378.829 1304.874 379.818 1308.484 379.818 C 1310.292 379.818 1311.765 379.501 1313.264 379.225 L 1309.77 394.08 C 1309.319 394.38 1307.77 395.346 1304.924 395.824 C 1301.774 396.353 1297.446 396.014 1292.426 392.763 L 1296.547 376.61 Z" style="stroke: rgb(168, 98, 236);"/>
      </g>
      <g opacity="0.6">
        <path d="M1048.87 353.815C1074.66 360.315 1100.85 344.683 1107.36 318.9C1113.87 293.117 1098.24 266.948 1072.44 260.448C1046.65 253.949 1020.46 269.581 1013.95 295.363C1007.44 321.146 1023.07 347.316 1048.87 353.815Z" fill="#3F2B59"/>
        <path d="M1075.82 342.793C1058.26 350.282 1037.43 343.839 1027.37 327.008C1017.31 310.155 1021.53 288.741 1036.49 276.842" stroke="#A862EC" stroke-width="2" stroke-linecap="round" stroke-linejoin="round"/>
        <path d="M1045.45 271.492C1063.02 263.974 1083.88 270.405 1093.95 287.258C1104.01 304.099 1099.8 325.486 1084.87 337.392" stroke="#A862EC" stroke-width="2" stroke-linecap="round" stroke-linejoin="round"/>
        <path d="M 1059.157 280.91 C 1042.762 280.91 1029.154 291.074 1029.154 303.894 C 1029.154 312.03 1034.875 319.574 1043.867 323.661 C 1043.867 323.661 1043.867 323.668 1043.867 323.668 C 1043.901 323.68 1043.895 323.652 1043.88 323.696 C 1043.476 324.846 1042.135 327.188 1040.836 328.928 C 1040.489 329.391 1040.501 330.002 1040.862 330.454 C 1041.223 330.909 1041.852 331.098 1042.435 330.932 C 1045.919 329.944 1049.537 328.102 1051.707 326.153 L 1051.711 326.153 C 1053.008 326.411 1054.333 326.585 1055.66 326.709 C 1059.078 329.359 1063.798 330.981 1068.931 330.981 C 1070.604 330.981 1072.282 330.8 1073.925 330.446 C 1075.421 331.408 1077.044 331.769 1078.548 332.242 C 1079.121 332.425 1079.755 332.249 1080.132 331.815 C 1080.508 331.375 1080.543 330.762 1080.219 330.288 C 1079.704 329.543 1079.398 329.223 1079.116 328.62 C 1084.37 325.975 1087.653 321.447 1087.653 316.488 C 1087.653 315.116 1087.395 313.804 1086.938 312.556 C 1088.359 309.888 1089.154 306.957 1089.154 303.894 C 1089.154 291.074 1075.546 280.91 1059.157 280.91 Z M 1059.157 283.548 C 1074.272 283.548 1086.296 292.816 1086.296 303.894 C 1086.296 305.806 1085.927 307.642 1085.262 309.402 C 1082.029 304.953 1075.858 301.998 1068.931 301.998 C 1058.757 301.998 1050.21 308.36 1050.21 316.488 C 1050.21 319.102 1051.105 321.536 1052.648 323.633 C 1052.528 323.612 1052.409 323.598 1052.294 323.578 C 1052.292 323.576 1052.289 323.576 1052.287 323.574 C 1052.103 323.536 1051.908 323.516 1051.699 323.516 C 1050.965 323.516 1050.248 323.791 1049.726 324.261 C 1049.724 324.261 1049.724 324.261 1049.722 324.261 C 1048.731 325.154 1047.02 326.106 1045.177 326.967 C 1045.649 326.122 1046.353 325.209 1046.597 324.498 C 1047.033 323.26 1046.399 321.877 1045.126 321.3 C 1036.951 317.581 1032.011 310.888 1032.011 303.894 C 1032.011 292.816 1044.036 283.548 1059.157 283.548 Z M 1068.931 304.637 C 1077.824 304.637 1084.796 310.089 1084.796 316.488 C 1084.796 320.408 1082.224 324.097 1077.671 326.357 C 1077.671 326.359 1077.669 326.36 1077.669 326.36 C 1076.768 326.81 1076.406 327.696 1076.403 328.609 C 1076.149 328.489 1075.719 328.413 1075.51 328.274 C 1075.509 328.273 1075.509 328.273 1075.507 328.271 C 1075.052 327.976 1074.502 327.809 1073.937 327.809 C 1073.729 327.809 1073.52 327.834 1073.318 327.876 C 1071.875 328.186 1070.398 328.346 1068.931 328.346 C 1060.036 328.346 1053.067 322.884 1053.067 316.488 C 1053.067 310.089 1060.036 304.637 1068.931 304.637 Z M 1061.587 313.935 C 1060.566 313.919 1059.612 314.407 1059.095 315.218 C 1058.579 316.035 1058.579 317.044 1059.095 317.854 C 1059.612 318.671 1060.566 319.162 1061.587 319.143 C 1062.612 319.162 1063.568 318.671 1064.082 317.854 C 1064.601 317.044 1064.601 316.035 1064.082 315.218 C 1063.568 314.407 1062.612 313.919 1061.587 313.935 Z M 1069.495 313.935 C 1068.469 313.919 1067.52 314.407 1067 315.218 C 1066.484 316.035 1066.484 317.044 1067 317.854 C 1067.52 318.671 1068.469 319.162 1069.495 319.143 C 1070.515 319.162 1071.471 318.671 1071.986 317.854 C 1072.502 317.044 1072.502 316.035 1071.986 315.218 C 1071.471 314.407 1070.515 313.919 1069.495 313.935 Z M 1077.4 313.935 C 1076.379 313.919 1075.425 314.407 1074.908 315.218 C 1074.387 316.035 1074.387 317.044 1074.908 317.854 C 1075.425 318.671 1076.379 319.162 1077.4 319.143 C 1078.418 319.162 1079.374 318.671 1079.891 317.854 C 1080.411 317.044 1080.411 316.035 1079.891 315.218 C 1079.374 314.407 1078.418 313.919 1077.4 313.935 Z" style="mix-blend-mode: normal;" fill="#a862ec" fill-rule="nonzero" stroke="none" stroke-width="1" stroke-linecap="butt" stroke-linejoin="miter" stroke-miterlimit="10" stroke-dasharray="" stroke-dashoffset="0" font-family="none" font-weight="none" font-size="none" text-anchor="none"/>
      </g>
      <g opacity="0.6" clip-path="url(#clip1_1515_6073)">
        <path d="M1252.26 205.804C1277.52 197.513 1291.28 170.314 1282.99 145.053C1274.7 119.791 1247.5 106.034 1222.24 114.325C1196.98 122.616 1183.22 149.816 1191.51 175.077C1199.8 200.338 1227 214.095 1252.26 205.804Z" fill="#182B54"/>
        <path d="M1269.14 182.089C1258.31 197.8 1237.27 203.483 1219.77 194.64C1202.25 185.78 1194.37 165.436 1200.64 147.389" stroke="#2D96FF" stroke-width="2" stroke-linecap="round" stroke-linejoin="round"/>
        <path d="M1205.35 138.075C1216.17 122.336 1237.23 116.624 1254.75 125.484C1272.25 134.337 1280.14 154.65 1273.89 172.687" stroke="#2D96FF" stroke-width="2" stroke-linecap="round" stroke-linejoin="round"/>
        <path d="M1220.9 144.212C1217.95 144.951 1216.22 147.518 1214.89 149.554C1208.88 158.789 1211.12 170.924 1214.87 177.724C1217.31 182.153 1219.48 182.663 1220.29 182.765C1222.22 183.017 1223.97 182.064 1224.56 181.437C1227.35 178.503 1228.02 175.597 1229.98 173.43C1233.38 169.651 1236.13 167.905 1239.46 166.811C1242.56 165.794 1246.05 165.491 1251.03 166.519C1253.89 167.108 1256.15 169.048 1260.14 169.762C1260.99 169.914 1262.96 169.636 1264.36 168.301C1264.96 167.738 1266.4 166.034 1265.74 161.028C1264.68 152.924 1258.95 142.364 1249.04 138.347C1246.87 137.467 1243.69 136.229 1241.03 137.608C1238.86 138.73 1239.09 140.517 1236.35 142.5C1233.56 144.511 1229.79 144.946 1228.48 145.041C1224.22 145.354 1223.69 143.517 1220.89 144.216L1220.9 144.212Z" stroke="#2D96FF" stroke-width="3" stroke-linecap="round" stroke-linejoin="round"/>
        <path d="M1225.38 165.591C1228.83 164.458 1230.72 160.74 1229.58 157.288C1228.45 153.835 1224.73 151.954 1221.28 153.088C1217.83 154.221 1215.95 157.939 1217.08 161.391C1218.21 164.844 1221.93 166.725 1225.38 165.591Z" stroke="#2D96FF" stroke-width="2" stroke-linecap="round" stroke-linejoin="round"/>
        <path d="M1250.55 157.331C1254 156.198 1255.88 152.48 1254.75 149.027C1253.62 145.574 1249.9 143.694 1246.45 144.827C1242.99 145.96 1241.11 149.678 1242.25 153.131C1243.38 156.584 1247.1 158.464 1250.55 157.331Z" stroke="#2D96FF" stroke-width="2" stroke-linecap="round" stroke-linejoin="round"/>
        <path d="M1222.37 156.404L1224.29 162.275" stroke="#2D96FF" stroke-width="2" stroke-linecap="round" stroke-linejoin="round"/>
        <path d="M1226.27 158.376L1220.38 160.306" stroke="#2D96FF" stroke-width="2" stroke-linecap="round" stroke-linejoin="round"/>
        <path d="M1250.21 149.803C1250.88 149.581 1251.25 148.852 1251.03 148.175C1250.81 147.498 1250.08 147.129 1249.4 147.352C1248.73 147.574 1248.36 148.303 1248.58 148.979C1248.8 149.656 1249.53 150.025 1250.21 149.803Z" fill="#2D96FF"/>
        <path d="M1246.61 150.985C1247.28 150.763 1247.65 150.034 1247.43 149.357C1247.21 148.68 1246.48 148.311 1245.8 148.533C1245.12 148.756 1244.76 149.484 1244.98 150.161C1245.2 150.838 1245.93 151.207 1246.61 150.985Z" fill="#2D96FF"/>
        <path d="M1251.44 153.556C1252.12 153.334 1252.48 152.605 1252.26 151.928C1252.04 151.251 1251.31 150.882 1250.63 151.104C1249.96 151.327 1249.59 152.055 1249.81 152.732C1250.03 153.409 1250.76 153.778 1251.44 153.556Z" fill="#2D96FF"/>
        <path d="M1247.84 154.738C1248.51 154.515 1248.88 153.787 1248.66 153.11C1248.44 152.433 1247.71 152.064 1247.03 152.286C1246.36 152.508 1245.99 153.237 1246.21 153.914C1246.43 154.591 1247.16 154.96 1247.84 154.738Z" fill="#2D96FF"/>
      </g>
      <g opacity="0.6" clip-path="url(#clip2_1515_6073)">
        <path d="M789.832 242.716C814.697 252.127 842.484 239.598 851.894 214.732C861.305 189.866 848.776 162.08 823.91 152.669C799.044 143.259 771.258 155.788 761.847 180.653C752.437 205.519 764.966 233.306 789.832 242.716Z" fill="#3F2A59"/>
        <path d="M817.858 234.858C799.563 240.283 779.622 231.496 771.556 213.624C763.487 195.73 770.124 174.943 786.341 164.839" stroke="#A862EC" stroke-width="2" stroke-linecap="round" stroke-linejoin="round"/>
        <path d="M795.855 160.549C814.16 155.095 834.136 163.874 842.205 181.768C850.268 199.65 843.65 220.412 827.462 230.527" stroke="#A862EC" stroke-width="2" stroke-linecap="round" stroke-linejoin="round"/>
        <path d="M 807.462 169.932 C 799.426 169.932 790.577 172.71 788.736 181.721 C 788.473 182.683 789.271 183.138 789.929 183.26 L 798.119 183.974 C 798.912 183.974 799.421 183.27 799.683 182.547 C 800.342 179.422 803.233 177.854 806.392 177.854 C 808.105 177.854 810.07 178.478 811.125 179.919 C 812.308 181.482 812.071 183.636 812.071 185.438 L 812.071 186.527 C 807.199 187.006 800.877 187.353 796.267 189.155 C 790.999 191.196 787.295 195.411 787.295 201.657 C 787.295 209.589 792.826 213.559 799.807 213.559 C 805.733 213.559 809.026 212.217 813.635 207.89 C 815.214 209.931 815.765 210.908 818.533 213.071 C 818.795 213.193 819.052 213.296 819.315 213.296 C 819.711 213.296 820.112 213.198 820.508 212.958 L 820.508 213.071 C 822.221 211.748 825.215 209.213 826.928 207.89 C 827.587 207.411 827.453 206.585 826.928 205.862 C 825.349 204.06 823.801 202.371 823.801 198.766 L 823.801 186.865 C 823.801 181.82 824.181 177.131 820.096 173.649 C 816.804 170.885 811.546 169.932 807.462 169.932 Z M 807.462 172.335 C 811.016 172.335 815.611 173.17 818.244 175.451 C 821.012 177.854 821.167 180.858 821.167 185.663 L 821.167 198.766 C 821.167 202.732 822.844 204.886 824.294 206.688 C 823.898 206.928 823.538 207.303 823.142 207.665 L 823.142 207.552 L 819.315 210.668 C 817.864 209.467 817.313 208.753 816.392 207.552 C 816.259 207.313 815.996 207.05 815.734 206.688 L 813.923 204.286 L 811.66 206.351 C 807.575 210.194 804.941 211.269 799.807 211.269 C 793.618 211.269 789.929 207.655 789.929 201.77 C 789.929 196.964 792.553 193.369 797.296 191.445 C 800.722 190.122 805.594 189.629 809.808 189.268 C 810.728 189.146 811.526 189.164 812.318 189.042 L 814.705 188.78 L 814.705 184.95 C 814.705 183.026 814.715 180.759 813.265 178.718 C 811.814 176.793 809.288 175.564 806.392 175.564 C 801.916 175.564 798.351 177.854 797.296 181.458 L 791.781 180.97 C 793.891 173.522 802.456 172.335 807.462 172.335 Z M 809.684 190.356 C 799.282 190.957 797.049 196.129 797.049 200.456 C 796.915 205.14 800.095 208.378 804.704 208.378 C 807.997 208.378 811.011 206.566 812.853 203.685 C 814.695 200.681 814.705 197.931 814.705 195.05 L 814.705 190.356 L 809.684 190.356 Z M 809.684 192.759 L 812.071 192.759 L 812.071 194.449 C 812.071 197.452 812.179 199.841 810.466 202.483 C 809.149 204.647 806.942 205.975 804.704 205.975 C 801.545 205.975 799.56 203.821 799.56 200.456 C 799.56 194.81 804.416 193.121 809.684 192.759 Z M 832.855 210.293 C 830.746 210.293 828.276 210.781 826.434 211.982 C 825.91 212.344 825.899 212.808 826.558 212.808 C 828.667 212.569 833.416 211.992 834.336 213.071 C 835.129 214.033 833.4 218.093 832.608 220.017 C 832.345 220.618 832.865 220.754 833.39 220.392 C 836.945 217.628 837.876 211.992 837.217 211.269 C 836.821 210.668 834.964 210.293 832.855 210.293 Z M 777.047 211.382 C 776.651 211.382 776.358 211.996 776.883 212.358 C 784.785 218.844 795.336 222.795 806.927 222.795 C 815.225 222.795 824.819 220.406 831.538 215.962 C 832.592 215.239 831.687 214.019 830.632 214.498 C 823.127 217.379 815.086 218.815 807.709 218.815 C 796.777 218.815 786.266 216.051 777.706 211.607 C 777.444 211.367 777.181 211.382 777.047 211.382 Z" fill="#a962ee" fill-rule="nonzero" stroke="none" stroke-width="1" stroke-linecap="butt" stroke-linejoin="miter" stroke-miterlimit="10" stroke-dasharray="" stroke-dashoffset="0" font-family="none" font-weight="none" font-size="none" text-anchor="none" style="mix-blend-mode: normal;"/>
      </g>
    </g>
  </g>
  <defs>
    <clipPath id="clip0_1515_6073">
      <rect width="1440" height="466" fill="white"/>
    </clipPath>
    <clipPath id="clip1_1515_6073">
      <rect width="96.29" height="96.29" fill="white" transform="translate(1176.5 129.337) rotate(-18.1703)"/>
    </clipPath>
    <clipPath id="clip2_1515_6073">
      <rect width="96.29" height="96.29" fill="white" transform="translate(778.887 135.63) rotate(20.7294)"/>
    </clipPath>
  </defs>
</svg>